# xmcd CD database file
#
# Track frame offsets:
#	150
#	11605
#	23867
#	35267
#	47572
#	59505
#	72097
#	84175
#	96145
#	108145
#	120857
#	133100
#	145132
#	156662
#	170117
#	183162
#	197140
#	210527
#	224580
#	238100
#	252867
#	267545
#
# Disc length: 3743 seconds
#
# Revision: 0
# Processed by: cddbd v1.5.2PL0 Copyright (c) Steve Scherf et al.
# Submitted via: jetAudio 7
#
DISCID=3b0e9d16
DTITLE=Sam Collins - Complete Recorded Works In Chronological Order 192
DTITLE=7-1931
DYEAR=1900
DGENRE=Blues
TTITLE0=The Jailhouse Blues
TTITLE1=Devil In The Lion's Den
TTITLE2=Yellow Dog Blues
TTITLE3=Loving Lady Blues
TTITLE4=Riverside Blues
TTITLE5=Dark Cloudy Blues
TTITLE6=Hesitation Blues
TTITLE7=Pork Chop Blues
TTITLE8=Midnight Special Blues
TTITLE9=I Want To Be Like Jesus In My Heart
TTITLE10=Lead Me All The Way
TTITLE11=It Won't Be Long
TTITLE12=Do That Thing
TTITLE13=The Worried Man Blues
TTITLE14=The Moanin' Blues
TTITLE15=Lonesome Road Blues
TTITLE16=New Salty Dog
TTITLE17=Slow Mama Slow
TTITLE18=Signifying Blues
TTITLE19=I'm Still Sitting On Top Of The World
TTITLE20=Graveyard Digger's Blues
TTITLE21=My Road Is Rough And Rocky
EXTD=
EXTT0=
EXTT1=
EXTT2=
EXTT3=
EXTT4=
EXTT5=
EXTT6=
EXTT7=
EXTT8=
EXTT9=
EXTT10=
EXTT11=
EXTT12=
EXTT13=
EXTT14=
EXTT15=
EXTT16=
EXTT17=
EXTT18=
EXTT19=
EXTT20=
EXTT21=
PLAYORDER=
